<?xml version="1.0" encoding="UTF-8" standalone="no"?>
<!-- Created with Inkscape (http://www.inkscape.org/) -->

<svg
   width="210mm"
   height="297mm"
   viewBox="0 0 210 297"
   version="1.1"
   id="svg435"
   inkscape:version="1.2 (dc2aedaf03, 2022-05-15)"
   sodipodi:docname="desenho.svg"
   xmlns:inkscape="http://www.inkscape.org/namespaces/inkscape"
   xmlns:sodipodi="http://sodipodi.sourceforge.net/DTD/sodipodi-0.dtd"
   xmlns="http://www.w3.org/2000/svg"
   xmlns:svg="http://www.w3.org/2000/svg">
  <sodipodi:namedview
     id="namedview437"
     pagecolor="#ffffff"
     bordercolor="#000000"
     borderopacity="0.25"
     inkscape:showpageshadow="2"
     inkscape:pageopacity="0.0"
     inkscape:pagecheckerboard="0"
     inkscape:deskcolor="#d1d1d1"
     inkscape:document-units="mm"
     showgrid="false"
     showguides="false"
     inkscape:zoom="0.3581229"
     inkscape:cx="-745.55411"
     inkscape:cy="340.66518"
     inkscape:window-width="1920"
     inkscape:window-height="1009"
     inkscape:window-x="-8"
     inkscape:window-y="-8"
     inkscape:window-maximized="1"
     inkscape:current-layer="layer1" />
  <defs
     id="defs432">
    <clipPath
       clipPathUnits="userSpaceOnUse"
       id="clipPath957">
      <path
         d="M 124.11987,855.65338 H 2357.2432 V 2654.0372 H 124.11987 Z"
         clip-rule="evenodd"
         id="path955" />
    </clipPath>
  </defs>
  <g
     inkscape:label="Camada 1"
     inkscape:groupmode="layer"
     id="layer1">
    <rect
       style="fill:#000080;stroke:none;stroke-width:0.636873;stroke-linejoin:round"
       id="rect608"
       width="50"
       height="120"
       x="-248.33229"
       y="-5.9991698"
       ry="0" />
    <rect
       style="fill:#000080;stroke:none;stroke-width:0.636873;stroke-linejoin:round"
       id="rect608-7"
       width="50"
       height="120"
       x="29.00083"
       y="163.33229"
       ry="0"
       transform="rotate(90)" />
    <g
       id="g814"
       transform="translate(8.2383597)"
       inkscape:export-filename="sirejud_ico.png"
       inkscape:export-xdpi="96"
       inkscape:export-ydpi="96">
      <g
         id="g327">
        <path
           style="fill:#008000;stroke:none;stroke-width:0.678;stroke-linejoin:round"
           d="m 79.713989,143.18014 v 35 h 49.999991 v -35 h 35 V 93.180148 h -35 z"
           id="path903" />
        <path
           style="fill:#000080;stroke:none;stroke-width:0.678;stroke-linejoin:round"
           d="m 129.71398,93.180148 v -35 H 79.713999 v 35 h -35 v 49.999992 h 35 z"
           id="path903-6" />
      </g>
      <g
         id="g951"
         transform="matrix(0.03593161,0,0,0.03593161,60.134304,55.125726)">
        <g
           id="g953"
           clip-path="url(#clipPath957)">
          <g
             id="g959"
             transform="matrix(7.8853226,0,0,7.8840189,-774.01831,-255.18524)">
            <path
               d="m 363.89999,197.5 c -0.5,0.5 -1.1,0.60001 -1.79998,0.5 -0.29999,-0.10001 -33.29999,-9.10001 -52.4,-0.2 -6,2.80001 -12.20001,7.5 -18.79999,12.5 -1.89999,1.5 -3.89999,2.9 -5.79998,4.4 -0.29999,0.19999 -0.70002,0.39999 -1.10001,0.39999 -0.20001,0 -0.39999,0 -0.60001,-0.10001 -0.6,-0.19999 -1,-0.69999 -1.20001,-1.3 -3.1,-12.5 -8.20001,-22.5 -15,-29.5 -0.39999,-0.39999 -0.6,-1 -0.5,-1.6 0.10001,-0.60001 0.5,-1.10001 1.10001,-1.30001 19.29999,-8.39999 35.70001,-14.69999 56.29999,-12.5 33.6,3.5 39.89999,26.10001 40.20001,27 0.29999,0.60002 0.1,1.30004 -0.40003,1.70003 z"
               style="fill:#ffcc00;fill-opacity:1;fill-rule:nonzero;stroke:none"
               id="path961" />
            <path
               d="m 276.79999,223.5 c 6.1,37.10001 -4,98.20001 -40.4,144.79999 C 236,368.79999 235.5,369 235,369 c -0.3,0 -0.60001,-0.10001 -0.89999,-0.20001 -0.80001,-0.4 -1.2,-1.29999 -0.9,-2.20001 10.60001,-33.60001 10.9,-96.70002 -4.5,-127.7 -2.5,-4.9 -3,-10.60001 -1.5,-15.9 2.9,-10.5 9,-22.69999 18.30001,-36.19999 2.5,-3.60001 7.39999,-4.60001 10.99998,-2.30001 C 266.70001,191.3 273.79999,204.7 276.79999,223.5 Z"
               style="fill:#ffcc00;fill-opacity:1;fill-rule:nonzero;stroke:none"
               id="path963" />
            <path
               d="m 222,148.89999 c 0,-4.39999 3.60001,-8 8.10001,-8 H 265 c 4.60001,0 8.29999,3.7 8.29999,8.30001 v 5.89999 c 0,13.60001 -7.60001,20.8 -21.80001,20.8 -13.6,0 -21.1,-6.6 -21.8,-19 C 225.39999,156.7 222,153.2 222,148.89999 Z"
               style="fill:#ffffff;fill-opacity:1;fill-rule:nonzero;stroke:none"
               id="path965" />
            <path
               d="m 220.2,221 c -0.9,3.10001 -1.2,6.2 -1,9.3 0,0.60001 -0.2,1.10001 -0.60001,1.5 -0.3,0.30001 -0.8,0.5 -1.2,0.5 -0.1,0 -0.19999,0 -0.3,0 -30.10001,-5.1 -64.3,-19.69999 -70.40001,-45.69999 -0.2,-0.80001 0.10001,-1.5 0.8,-2 0.7,-0.4 1.5,-0.4 2.10001,0.1 20,16.2 44,19.60001 78.09999,11.10001 0.7,-0.2 1.4,0.1 1.9,0.6 0.39999,0.60001 0.5,1.4 0.19999,2 C 225.2,206.60001 222.10001,213.89999 220.2,221 Z"
               style="fill:#ffffff;fill-opacity:1;fill-rule:nonzero;stroke:none"
               id="path967" />
            <path
               d="m 121.3,278.10001 c -0.19999,0 -0.4,0 -0.59999,-0.10001 -1,-0.29999 -1.5,-1.39999 -1.1,-2.29999 l 27,-80 c 0.3,-0.69999 0.89999,-1.19999 1.69999,-1.19999 0.80001,0 1.5,0.5 1.7,1.19999 l 27,80 c 0.3,1 -0.2,2 -1.10001,2.29999 -1,0.29999 -2,-0.20001 -2.3,-1.10001 l -25.3,-74.89999 -25.3,74.89999 C 122.8,277.60001 122.1,278.10001 121.3,278.10001 Z"
               style="fill:#ffffff;fill-opacity:1;fill-rule:nonzero;stroke:none"
               id="path969" />
            <path
               d="M 397.10001,276.29999 V 276.5 c 0,19 -15.5,34.5 -34.5,34.5 -19,0 -34.5,-15.5 -34.5,-34.5 v -0.20001 c 0,-1 0.79998,-1.79999 1.79998,-1.79999 h 65.4 c 1,-0.10001 1.80002,0.70001 1.80002,1.79999 z"
               style="fill:#ffcc00;fill-opacity:1;fill-rule:nonzero;stroke:none"
               id="path971" />
            <path
               d="M 182.89999,276.29999 V 276.5 c 0,19 -15.5,34.5 -34.5,34.5 -19,0 -34.5,-15.5 -34.5,-34.5 v -0.20001 c 0,-1 0.80001,-1.79999 1.80001,-1.79999 H 181 c 1.10001,-0.10001 1.89999,0.70001 1.89999,1.79999 z"
               style="fill:#ffffff;fill-opacity:1;fill-rule:nonzero;stroke:none"
               id="path973" />
            <path
               d="m 389.60001,278.10001 c -0.79999,0 -1.5,-0.5 -1.70002,-1.20002 L 362.60001,202 337.30002,276.89999 c -0.29999,1 -1.4,1.5 -2.29999,1.10001 -1,-0.29999 -1.5,-1.39999 -1.10001,-2.29999 l 27,-80 c 0.29999,-0.69999 0.9,-1.19999 1.70002,-1.19999 0.79998,0 1.5,0.5 1.70001,1.19999 l 27,80 c 0.29999,1 -0.20001,2 -1.10001,2.29999 -0.20004,0 -0.40005,0.10001 -0.60003,0.10001 z"
               style="fill:#ffcc00;fill-opacity:1;fill-rule:nonzero;stroke:none"
               id="path975" />
          </g>
        </g>
      </g>
    </g>
    <text
       xml:space="preserve"
       style="font-style:normal;font-variant:normal;font-weight:bold;font-stretch:normal;font-size:28.245px;font-family:Arial;-inkscape-font-specification:'Arial, Bold';font-variant-ligatures:normal;font-variant-caps:normal;font-variant-numeric:normal;font-variant-east-asian:normal;text-align:center;text-anchor:middle;fill:#000000;stroke-width:4.52366;stroke-linejoin:round"
       x="113.14543"
       y="207.60593"
       id="text798"><tspan
         sodipodi:role="line"
         id="tspan796"
         style="font-style:normal;font-variant:normal;font-weight:bold;font-stretch:normal;font-size:28.245px;font-family:Arial;-inkscape-font-specification:'Arial, Bold';font-variant-ligatures:normal;font-variant-caps:normal;font-variant-numeric:normal;font-variant-east-asian:normal;stroke-width:4.52366"
         x="113.14543"
         y="207.60593">SIREJUD</tspan></text>
  </g>
</svg>
